<svg xmlns="http://www.w3.org/2000/svg" viewBox="0 0 1024 1024">
    <path fill="#FDFFFF00"
        d="M546 1025H1V1h1024v1024H546m233.295-454.94s-.215.122-1.147-.063c-14.08.229-28.158.457-43.15.525-5.642.066-11.284.132-17.685-.118-7.465.104-14.93.209-23.298.15-3.978.043-7.956.085-12.695-.19-13.8.102-27.602.203-42.134.113-2.035.068-4.07.135-6.86-.114-4.804.108-9.61.215-15.31.16-3.646.055-7.292.109-11.697-.155h-80.442c0-11.466 0-21.9.121-33.269-.047-12.378-.095-24.757.11-37.74l-1.694-5.092a316.346 316.346 0 00-5.405 2.837c-7.371 7.232-14.635 14.579-22.168 21.639-2.902 2.719-4.093 5.54-4.09 9.562.062 106.324 0 212.648-.039 318.973v5.652h-96.4c.095-.45.077-.657.16-.713.553-.372 1.122-.72 1.696-1.059 12.727-7.51 19.03-18.64 18.93-33.43-.046-6.666.048-13.333.054-19.999.102-100.49.203-200.981.282-301.472.004-3.96.066-7.805 4.454-9.682 4.474-1.914 7.655.294 10.583 3.354 4.261 4.453 8.422 9.013 12.86 13.285 11.794 11.352 24.033 11.638 36.265.64 6.683-6.01 12.96-12.472 19.378-18.773 19.14-18.789 38.302-37.555 57.369-56.419 9.541-9.44 9.083-24.011-.611-33.981-7.962-8.188-23.4-9.619-32.598.258-12.137 13.034-25.238 25.173-37.98 37.641-3.49 3.416-7.11 6.875-12.675 4.278-4.947-2.309-7.229-7.313-6.493-13.863.141-1.255.237-2.701-.234-3.81-11.883-28.033-32.243-45.374-62.796-50.27-6.314-1.013-11.008-.16-16.288 3.93-12.649 9.803-27.768 14.03-43.781 16.361.806 1.36 1.459 2.475 2.122 3.582 3.505 5.849 4.056 13.487-1.212 17.402-6.561 4.877-4.348 10.223-3.698 15.828.555 4.792 1.514 9.538 2.302 14.302 4.02 24.311 7.963 48.636 12.143 72.92.735 4.265-.248 7.273-3.42 10.162-5.17 4.709-9.956 9.836-15.004 14.683-6.443 6.188-10.02 6.138-16.512-.2-4.888-4.772-9.523-9.814-14.552-14.43-3.425-3.142-4.43-6.44-3.63-11.067 5.307-30.685 10.341-61.417 15.544-92.12.585-3.454.469-5.87-2.948-8.312-6.106-4.365-7.112-11.69-3.502-18.314.736-1.35 1.527-2.668 2.148-3.749-7.285-1.915-14.382-3.23-21.057-5.688-6.832-2.514-14.316-4.934-19.609-9.57-8.4-7.36-17.219-7.183-26.857-5.37-4.414.83-8.864 1.596-13.18 2.81-27.67 7.78-48.875 31.882-51.421 58.636-.15 2.486-.43 4.97-.432 7.456-.046 51.856-.068 103.712-.048 155.568 0 1.776.497 3.552.755 6.076 4.225 11.882 13.931 18.016 25.373 16.19 9.477-1.51 17.303-10.45 17.14-22.971-.419-31.991-.045-63.993.035-95.99.019-7.333-.024-14.67.25-21.995.192-5.141 3.432-8.289 8.142-9.576 4.448-1.215 7.996 1.037 10.085 4.714 1.309 2.305 1.923 5.316 1.92 8.009-.056 46.828-.295 93.655-.414 140.483-.171 67.66-.268 135.32-.424 202.98-.024 10.511 4.198 19.038 11.954 25.887 2.15 1.898 4.67 3.376 7.947 5.705-14.22 0-27.31.004-40.4 0-12.333-.005-24.668-.175-36.997.024-9.887.16-17.053 7.545-16.768 16.76.264 8.564 7.682 15 17.314 15.005 3.5.002 7-.044 10.499-.044 210.984.039 421.968.08 632.952.117 9.367.001 17.068-6.932 17.138-15.372.074-9.109-7.517-16.494-17.068-16.557-5.618-.038-11.237-.007-17.327-.007v-5.828c-.034-98.826-.091-197.652-.095-296.478-.003-78.494.07-156.989.058-235.483 0-3.182.454-5.453 3.67-7.32 12.76-7.409 18.942-19.088 19.093-33.518.32-30.661.107-61.328.07-91.993-.003-2.149-.13-4.347-.582-6.44-4.693-21.748-22.34-36.049-44.762-36.078-53.163-.069-106.326-.03-159.49-.032-39.33-.001-78.66-.08-117.99.038-23.502.071-43.873 18.847-44.11 41.082-.336 31.494-.298 62.995-.044 94.49.114 14.083 6.952 24.854 18.947 32.018 3.063 1.828 4.002 3.607 3.984 6.967a7147.723 7147.723 0 00-.001 73.494c.01 2.051 1.154 4.097 1.99 6.872 10.014-9.153 18.95-17.137 27.618-25.402 1.67-1.592 3.213-4.275 3.244-6.477.257-18.162.092-36.33.2-54.494.014-2.62-.64-4.071-3.1-5.397-7.847-4.231-11.715-11.012-11.713-19.992.003-11.5-.108-22.999-.103-34.498.007-20.165-.012-40.33.138-60.494.068-9.21 4.382-15.349 12.125-15.65 14.075-.549 28.186-.156 42.586-.156v5.87c-.016 32.832-.045 65.663-.044 98.494 0 16.31 13.83 29.973 30.485 29.942 19.597-.037 31.885-16.283 31.612-29.98-.639-31.984-.174-63.99-.157-95.988v-8.27h53.116v5.646c-.015 32.83-.211 65.663.137 98.49.055 5.237 1.525 11.032 4.11 15.558 6.983 12.226 21.274 17.103 35.11 13.04 13.795-4.05 22.302-15.306 22.349-29.565.108-32.663.216-65.327.337-97.99.006-1.604.14-3.207.227-5.067 13.869 0 27.35-.336 40.803.137 7.121.25 11.983 6.01 12.02 13.608.159 33.497.182 66.995.01 100.49-.039 7.586-3.76 13.576-10.993 16.405-3.378 1.322-3.888 3.17-3.872 6.317.14 27.83.143 55.661.166 83.492.002 1.578-.168 3.156-.252 4.618h-42.828c0-11.726.165-23.05-.05-34.366-.182-9.563-6.761-16.134-16.127-16.147-40.497-.056-80.994-.007-121.49.045-5.86.008-10.693 2.15-14.396 7.866-.637 3.053-1.8 6.102-1.828 9.16-.192 20.478-.151 40.958-.156 61.437 0 1.746.214 3.491.323 5.146 9.198 0 17.814 0 27.363.143H780.14c0 1.806-.005 3.423 0 5.04.104 27.319.208 54.637.062 82.848.067 3.08.135 6.161.047 10.158-.08 13.615-.16 27.23-.485 40.754-.196.074-.277.215-.47.326M336.719 183.796c-51.322-4.282-96.782 33.686-101.17 84.496-4.294 49.71 33.269 95.047 82.596 99.69 53.988 5.081 100.046-31.782 104.358-85.19 3.874-47.986-32.36-94.136-85.784-98.996m332.346 281.677c.002 1.832.016 3.664.003 5.496-.06 8.074-4.54 13.19-11.653 13.324-7.32.137-12.357-5.183-12.423-13.222-.052-6.283-.01-12.567-.01-19.02-21.21 0-41.99-.24-62.759.13-7.265.13-12.8 7.385-12.924 15.292-.04 2.493.228 4.99.233 7.486.04 19.654.023 39.308.08 58.962.031 10.815 5.833 17.454 15.563 17.468 48.138.069 96.275.079 144.412.006 9.84-.015 15.487-5.84 15.505-15.631.04-22.153.028-44.306-.034-66.46-.033-11.538-6.006-17.428-17.622-17.456-18.156-.044-36.312-.029-54.468-.012-1.255.001-2.511.223-3.906.355 0 4.335 0 8.315.003 13.282z" />
    <path fill="gray"
        d="M718.072 570.72c5.642-.066 11.284-.132 17.657.213 14.23.591 27.729.797 41.228.878.704.004 1.415-1.061 2.123-1.629 0 0 .215-.121.428-.096.214.026.502-.26.502-.26.08-13.616.16-27.23.657-41.45.207-3.885-.004-7.165-.215-10.445l-.311-81.956c-.006-1.617-.001-3.234-.001-5.04-56.726 0-112.994 0-170.043-.335-7.072-.42-13.376-.79-19.65-.495-4.324.203-5.727-1.012-5.632-5.506.493-23.338.665-46.682.949-70.024 3.115-5.242 7.948-7.384 13.807-7.392 40.497-.052 80.994-.101 121.491-.045 9.366.013 15.945 6.584 16.127 16.147.215 11.316.05 22.64.05 34.366h42.828c.084-1.462.254-3.04.252-4.618-.023-27.83-.026-55.662-.166-83.492-.016-3.147.494-4.995 3.872-6.317 7.233-2.83 10.954-8.819 10.993-16.404.172-33.496.149-66.994-.01-100.49-.037-7.6-4.899-13.358-12.02-13.609-13.453-.473-26.934-.137-40.803-.137-.087 1.86-.221 3.463-.227 5.067-.121 32.663-.229 65.327-.337 97.99-.047 14.259-8.554 25.515-22.348 29.566-13.837 4.062-28.128-.815-35.11-13.04-2.586-4.527-4.056-10.322-4.111-15.56-.348-32.826-.152-65.659-.137-98.49v-5.645H626.8v8.27c-.017 31.997-.482 64.004.157 95.988.273 13.697-12.015 29.943-31.612 29.98-16.656.031-30.485-13.631-30.485-29.942 0-32.831.028-65.662.044-98.493v-5.871c-14.4 0-28.511-.393-42.586.156-7.743.301-12.057 6.44-12.125 15.65-.15 20.164-.13 40.33-.138 60.494-.005 11.5.106 22.998.103 34.498-.002 8.98 3.866 15.761 11.713 19.992 2.46 1.326 3.114 2.777 3.1 5.397-.108 18.165.057 36.332-.2 54.494-.03 2.202-1.574 4.885-3.244 6.477-8.668 8.265-17.604 16.25-27.618 25.402-.836-2.775-1.98-4.82-1.99-6.872-.12-24.497-.13-48.996.001-73.494.018-3.36-.921-5.139-3.984-6.967-11.995-7.164-18.833-17.935-18.947-32.019-.254-31.494-.292-62.995.044-94.489.237-22.235 20.608-41.011 44.11-41.082 39.33-.118 78.66-.04 117.99-.038 53.164.001 106.327-.037 159.49.032 22.422.03 40.069 14.33 44.762 36.078.452 2.093.58 4.291.582 6.44.037 30.665.25 61.332-.07 91.993-.15 14.43-6.332 26.11-19.093 33.518-3.216 1.867-3.67 4.138-3.67 7.32.012 78.494-.06 156.989-.058 235.483.004 98.826.06 197.652.095 296.478v5.828c6.09 0 11.709-.03 17.327.007 9.551.063 17.142 7.448 17.068 16.557-.07 8.44-7.77 15.373-17.138 15.372-210.984-.036-421.968-.078-632.952-.117-3.5 0-7 .046-10.499.044-9.632-.006-17.05-6.44-17.314-15.004-.285-9.216 6.881-16.601 16.768-16.761 12.33-.2 24.664-.029 36.997-.025 13.09.005 26.18.001 40.4.001-3.277-2.33-5.798-3.807-7.947-5.705-7.756-6.85-11.978-15.376-11.954-25.888.156-67.66.253-135.32.424-202.98.12-46.827.358-93.654.414-140.482.003-2.693-.611-5.704-1.92-8.01-2.089-3.676-5.637-5.928-10.085-4.713-4.71 1.287-7.95 4.435-8.142 9.576-.274 7.325-.231 14.662-.25 21.994-.08 31.998-.454 64-.035 95.99.163 12.521-7.663 21.461-17.14 22.973-11.442 1.825-21.148-4.31-25.051-16.848.492-1.957.812-3.257.813-4.558.026-53.331.032-106.663-.022-159.994-.002-1.547-.686-3.094-1.052-4.64 2.21-26.005 23.415-50.106 51.085-57.888 4.316-1.213 8.766-1.98 13.18-2.81 9.638-1.812 18.458-1.99 26.857 5.37 5.293 4.637 12.777 7.057 19.609 9.571 6.675 2.458 13.772 3.773 21.057 5.688-.62 1.08-1.412 2.4-2.148 3.75-3.61 6.622-2.604 13.948 3.502 18.313 3.417 2.442 3.533 4.858 2.948 8.312-5.203 30.703-10.237 61.435-15.543 92.12-.8 4.628.204 7.925 3.63 11.068 5.028 4.615 9.663 9.657 14.551 14.43 6.492 6.337 10.07 6.387 16.512.2 5.048-4.848 9.833-9.975 15.003-14.684 3.173-2.89 4.156-5.897 3.421-10.163-4.18-24.283-8.122-48.608-12.143-72.919-.788-4.764-1.747-9.51-2.302-14.302-.65-5.605-2.863-10.951 3.698-15.828 5.268-3.915 4.717-11.553 1.212-17.402-.663-1.107-1.316-2.221-2.122-3.582 16.013-2.33 31.132-6.558 43.781-16.36 5.28-4.092 9.974-4.944 16.288-3.932 30.553 4.897 50.913 22.238 62.796 50.27.47 1.11.375 2.556.234 3.811-.736 6.55 1.546 11.554 6.493 13.863 5.565 2.597 9.184-.862 12.676-4.278 12.741-12.468 25.842-24.607 37.979-37.641 9.197-9.877 24.636-8.446 32.598-.258 9.694 9.97 10.152 24.541.61 33.981-19.066 18.864-38.228 37.63-57.368 56.42-6.418 6.3-12.695 12.763-19.378 18.771-12.232 10.999-24.471 10.713-36.266-.64-4.437-4.27-8.598-8.83-12.859-13.284-2.928-3.06-6.109-5.268-10.583-3.354-4.388 1.877-4.45 5.722-4.454 9.682-.079 100.49-.18 200.982-.282 301.472-.006 6.666-.1 13.333-.055 19.998.101 14.79-6.202 25.92-18.929 33.431-.574.34-1.143.687-1.696 1.059-.083.056-.065.263-.16.713h96.4v-5.652c.04-106.325.1-212.65.039-318.973-.003-4.022 1.188-6.843 4.09-9.562 7.533-7.06 14.797-14.407 22.84-21.792 2.019-.385 3.366-.618 4.611-.832l1.563 3.844c.048 12.379.096 24.758-.185 37.916-.422 10.064-.564 19.35-.583 28.635-.007 3.668 1.368 5.532 5.695 5.493 23.746-.214 47.495-.072 71.242-.147 1.686-.005 3.37-.765 5.055-1.174 3.645-.054 7.29-.108 11.658.249 5.596.188 10.47-.033 15.344-.255 2.035-.068 4.07-.135 6.675.201 1.347.613 2.124 1.002 2.902 1.004 11.955.038 23.91.06 35.864-.029 1.189-.009 2.372-.765 3.558-1.174 3.979-.043 7.957-.085 12.667.278 5.448.589 10.166.95 14.88.89 2.819-.037 5.63-.732 8.445-1.13m52.386 188.115h9.74v-156.22H525.315v156.224c81.655 0 162.905 0 245.143-.004M549.5 790.88h-24.195v62.023h254.73v-62.024H549.5m-235.356 47.686l-13.108 14.355h57.239c-14.069-8.59-19.406-20.47-19.292-35.973.376-51.125.183-102.254.197-153.38.002-6.496.083-12.996-.152-19.483-.183-5.08-4.295-9.346-9-9.866-4.308-.475-8.56 2.461-10.025 7.343-.654 2.18-.816 4.577-.82 6.875-.075 56.957-.138 113.913-.082 170.869.007 6.669-1.083 12.899-4.957 19.26m96.898-361.011c1.704-2.241 3.736-4.305 5.057-6.753 6-11.122 5.413-22.239-1.71-32.487-6.637-9.547-16.1-14.329-27.955-12.741-13.542 1.813-23.294 11.254-26.063 24.672-2.389 11.578 3.909 24.804 14.92 31.334 11.065 6.56 24.78 5.187 35.75-4.025M667.5 401.06c8.822.01 17.643.054 26.465.015 5.034-.023 8.552-2.437 10.337-7.153 1.837-4.854.676-9.223-2.77-12.895-3.407-3.63-7.671-4.183-12.406-3.02-3.911.96-7.897 2.125-11.872 2.215-13.31.302-26.63.204-39.945.146-1.922-.009-3.989-.297-5.734-1.047-5.434-2.337-9.672-1.962-13.353 1.574-3.653 3.51-5.025 8.99-3.194 13.257 2.164 5.04 6.098 7.024 11.526 6.966 13.314-.141 26.63-.053 40.946-.058z" />
    <path fill="gray"
        d="M337.164 183.84c52.977 4.816 89.212 50.966 85.338 98.953-4.312 53.407-50.37 90.27-104.358 85.189-49.327-4.643-86.89-49.98-82.596-99.69 4.388-50.81 49.848-88.778 101.616-84.452zm331.899 281.14c-.002-4.474-.002-8.454-.002-12.79 1.395-.131 2.65-.353 3.906-.354 18.156-.017 36.312-.032 54.468.012 11.616.028 17.59 5.918 17.622 17.457.062 22.153.074 44.306.034 66.459-.018 9.791-5.666 15.616-15.505 15.63-48.137.074-96.274.064-144.412-.005-9.73-.014-15.532-6.653-15.563-17.468-.057-19.654-.04-39.308-.08-58.962-.005-2.496-.272-4.993-.233-7.486.125-7.907 5.66-15.162 12.924-15.292 20.77-.37 41.549-.13 62.758-.13 0 6.453-.041 12.737.01 19.02.067 8.04 5.103 13.36 12.424 13.222 7.114-.133 11.593-5.25 11.653-13.324.013-1.832-.001-3.664-.004-5.99zm-258.278 12.822c-10.714 8.964-24.43 10.337-35.494 3.777-11.011-6.53-17.309-19.756-14.92-31.334 2.77-13.418 12.52-22.86 26.063-24.672 11.854-1.588 21.318 3.194 27.954 12.74 7.124 10.25 7.71 21.366 1.711 32.488-1.32 2.448-3.353 4.512-5.314 7.001m-12.923-31.193c-6.362-4.194-12.053-4.064-16.17.37-4.5 4.847-4.444 11.83.135 16.62 4.47 4.679 11.185 4.909 16.08.552 5.464-4.863 5.641-10.748-.045-17.542zm154.137 188.39c1.42-6.996 6.644-12.689 13.371-12.765 25.614-.287 51.233-.115 77.477-.115 0 5.472-.106 10.75.025 16.024.188 7.55 5.36 12.773 12.47 12.81 7.18.036 11.789-4.534 12.254-12.29.16-2.657.064-5.329.073-7.993.009-2.658.002-5.317.002-8.423 1.44-.098 2.866-.277 4.293-.279 22.817-.027 45.634-.053 68.45-.032 12.13.011 18.223 5.916 18.268 18.067.102 27.813.096 55.627.013 83.44-.033 11.249-5.752 16.75-17.037 16.75-57.625-.004-115.25-.019-172.876-.04-10.538-.005-15.503-4.111-17.117-14.948.745-1.73 1.295-2.956 1.297-4.184.05-27.282.053-54.564-.004-81.846-.003-1.392-.625-2.784-.96-4.176m81.502 53.235c20.143-.003 40.286.024 60.428-.028 5.772-.014 10.183-3.526 11.683-9.004 1.559-5.69-.497-11.657-5.019-14.567-4.276-2.753-9.208-2.136-12.78 1.246-1.155 1.095-2.953 2.125-4.465 2.137-18.976.152-37.955.162-56.931.03-1.517-.011-3.356-1.003-4.476-2.113-4.19-4.15-10.708-4.187-14.538.3-3.69 4.323-4.524 9.28-2.164 14.44 2.25 4.917 6.084 7.77 11.781 7.658 5.16-.101 10.32-.069 16.481-.1z" />
    <path fill="gray"
        d="M398.141 446.862c5.407 6.541 5.23 12.426-.233 17.289-4.896 4.357-11.611 4.127-16.081-.551-4.579-4.791-4.636-11.774-.135-16.62 4.117-4.435 9.808-4.565 16.449-.118z" />
</svg>